# xmcd CD database file
#
# Track frame offsets:
#	150
#	20154
#	37358
#	52435
#	67064
#	84401
#	102507
#	116847
#	133115
#	148850
#	168162
#	185528
#	204959
#	224098
#	242675
#	259691
#	282174
#
# Disc length: 4063 seconds
#
# Revision: 0
# Processed by: cddbd v1.5.2PL0 Copyright (c) Steve Scherf et al.
# Submitted via: CDex 1.78
#
DISCID=190fdd11
DTITLE=Michelle Wright - The Wright Songs-An Acoustic Evening With Michelle Wright
DYEAR=2011
DGENRE=Country
TTITLE0=In The Blink Of An Eye
TTITLE1=I Surrender
TTITLE2=You Can't Lose Them All
TTITLE3=What Love Looks Like
TTITLE4=He Would Be Sixteen
TTITLE5=Something Wild
TTITLE6=Crank My Tractor
TTITLE7=I Don't Wanna Be That Strong
TTITLE8=Safe In The Arms Of Love
TTITLE9=Guitar Talk
TTITLE10=Your Love
TTITLE11=The Old Song And Dance
TTITLE12=I've Forgotten You
TTITLE13=Broken
TTITLE14=Nobody's Girl
TTITLE15=Take It Like A Man
TTITLE16=Everything And More
EXTD=YEAR: 2011
EXTT0=
EXTT1=
EXTT2=
EXTT3=
EXTT4=
EXTT5=
EXTT6=
EXTT7=
EXTT8=
EXTT9=
EXTT10=
EXTT11=
EXTT12=
EXTT13=
EXTT14=
EXTT15=
EXTT16=
PLAYORDER=
